<svg xmlns="http://www.w3.org/2000/svg" width="1308" height="1244" viewBox="0 0 1308 1244" version="1.1"><path d="M 182 176.500 C 177.903 180.625, 174.775 184, 175.050 184 C 175.325 184, 178.903 180.625, 183 176.500 C 187.097 172.375, 190.225 169, 189.950 169 C 189.675 169, 186.097 172.375, 182 176.500 M 210.280 852.736 C 212.909 852.943, 216.959 852.940, 219.280 852.731 C 221.601 852.521, 219.450 852.352, 214.500 852.355 C 209.550 852.358, 207.651 852.530, 210.280 852.736" stroke="none" fill="#202484" fill-rule="evenodd"/><path d="M 588 0.655 C 543.663 3.661, 512.325 7.903, 477.500 15.610 C 379.244 37.355, 292.840 80.141, 216.891 144.658 C 200.214 158.824, 161.323 198.208, 146.935 215.500 C 106.541 264.047, 74.866 314.742, 49.579 371.317 C 25.444 425.315, 8.849 483.577, 2.385 537 C 0.460 552.914, -0.407 613.016, 1.073 628 C 7.279 690.847, 26.315 744.871, 55.865 783.500 C 58.389 786.800, 64.515 793.719, 69.477 798.876 C 96.959 827.433, 130.607 844.199, 172.500 850.209 C 186.606 852.233, 247.401 851.900, 267 849.692 C 337.897 841.705, 408.563 824.006, 487.661 794.425 C 519.895 782.370, 540.247 776.837, 568.500 772.448 C 582.707 770.240, 612.901 769.459, 627.500 770.922 C 675.948 775.775, 718.739 794.576, 750.334 824.891 C 765.920 839.845, 776.517 854.739, 781.025 868.029 C 785.706 881.828, 781.008 897.076, 768.108 909.945 C 742.108 935.886, 689.636 951.882, 605 959.669 C 577.621 962.188, 518.345 962.187, 491 959.666 C 401.900 951.452, 303.714 930.042, 200.774 896.381 C 147.714 879.030, 87.510 855.196, 75.948 846.963 C 74.263 845.763, 72.627 845.040, 72.312 845.355 C 71.529 846.138, 89.722 883.040, 100.523 902.576 C 156.030 1002.977, 226.737 1084.593, 301.664 1134.747 C 353.493 1169.441, 417.432 1198.253, 488.539 1218.957 C 553.922 1237.993, 605.980 1244.840, 676.890 1243.727 C 711.841 1243.178, 730.346 1241.793, 761 1237.432 C 877.053 1220.921, 983.257 1172.842, 1072.500 1096.416 C 1090.273 1081.195, 1124.444 1047.383, 1139.152 1030.464 C 1182.999 980.024, 1218.282 927.413, 1252.800 861 C 1275.357 817.599, 1297.875 742.879, 1305.539 686 C 1307.755 669.551, 1308.611 630.575, 1307.080 615.797 C 1303.627 582.459, 1292.779 552.529, 1275.335 528.212 C 1267.621 517.458, 1250.268 498.862, 1242.036 492.528 C 1219.682 475.327, 1192.332 469.904, 1143 472.891 C 1108.838 474.959, 1082.420 479.620, 995 499.005 C 881.918 524.079, 834.787 531.293, 783.500 531.376 C 763.845 531.408, 758.622 531.080, 747.585 529.123 C 721.050 524.418, 705.460 517.385, 691.899 504 C 678.130 490.409, 672.684 476.946, 672.684 456.500 C 672.683 435.946, 678.956 416.921, 692.301 397 C 711.058 369, 744.769 353.654, 802.500 346.834 C 816.686 345.159, 868.359 345.143, 885 346.810 C 975.933 355.916, 1034.380 367.184, 1111.146 390.407 C 1153.537 403.232, 1216.319 426.132, 1259.250 444.429 C 1263.947 446.430, 1263.939 446.748, 1259.577 430.920 C 1234.691 340.623, 1174.659 244.299, 1099.231 173.636 C 1020.942 100.293, 928.654 50.190, 821.855 23.049 C 774.873 11.109, 729.423 4.241, 676 1.008 C 661.280 0.117, 599.579 -0.131, 588 0.655" stroke="none" fill="#1c2484" fill-rule="evenodd"/></svg>