<?xml version="1.0" standalone="no"?>
<!DOCTYPE svg PUBLIC "-//W3C//DTD SVG 20010904//EN"
 "http://www.w3.org/TR/2001/REC-SVG-20010904/DTD/svg10.dtd">
<svg version="1.0" xmlns="http://www.w3.org/2000/svg"
 width="1308.000000pt" height="1244.000000pt" viewBox="0 0 1308.000000 1244.000000"
 preserveAspectRatio="xMidYMid meet">

<g transform="translate(0.000000,1244.000000) scale(0.100000,-0.100000)"
fill="#000000" stroke="none">
<path d="M5965 12434 c-724 -43 -1241 -136 -1821 -329 -360 -120 -742 -290
-1065 -475 -902 -516 -1662 -1275 -2230 -2227 -120 -202 -333 -627 -425 -848
-134 -324 -269 -767 -333 -1091 -88 -443 -113 -980 -65 -1394 79 -688 315
-1250 682 -1624 466 -475 1054 -609 2102 -480 648 80 1296 247 2061 533 351
131 586 192 863 226 149 18 460 21 592 5 307 -37 620 -143 873 -296 285 -174
531 -439 611 -661 32 -90 26 -194 -19 -288 -42 -91 -171 -220 -291 -289 -366
-215 -979 -343 -1789 -375 -904 -36 -2061 151 -3345 539 -655 198 -1370 467
-1594 599 l-50 29 33 -71 c243 -534 635 -1169 1013 -1640 477 -596 967 -1027
1557 -1370 730 -423 1722 -759 2529 -857 309 -37 446 -45 816 -44 490 1 837
33 1270 120 1535 308 2822 1141 3818 2472 273 365 494 720 740 1187 119 225
145 284 229 525 336 957 430 1697 287 2270 -79 317 -223 566 -472 818 -178
181 -333 261 -572 297 -127 20 -520 20 -705 0 -296 -31 -530 -76 -1295 -245
-904 -200 -1257 -264 -1735 -312 -199 -19 -647 -17 -762 5 -360 68 -584 209
-689 432 -127 267 -61 636 169 945 102 137 235 233 430 309 462 180 1054 207
1982 91 944 -119 1909 -385 3023 -836 128 -52 235 -94 237 -94 7 0 -56 225
-100 356 -288 863 -861 1734 -1575 2392 -666 615 -1429 1060 -2307 1346 -554
180 -1111 285 -1788 336 -140 11 -776 21 -890 14z"/>
</g>
</svg>
